<?xml version="1.0" encoding="utf-8"?>
<!-- Generator: Adobe Illustrator 23.0.3, SVG Export Plug-In . SVG Version: 6.00 Build 0)  -->
<svg version="1.1" id="Layer_1" xmlns="http://www.w3.org/2000/svg" xmlns:xlink="http://www.w3.org/1999/xlink" x="0px" y="0px"
	 viewBox="0 0 500 500" style="enable-background:new 0 0 500 500;" xml:space="preserve">
<style type="text/css">
	.st0{fill:url(#SVGID_1_);}
</style>
<linearGradient id="SVGID_1_" gradientUnits="userSpaceOnUse" x1="37" y1="250" x2="382" y2="250">
	<stop  offset="0" style="stop-color:#FFFFFF"/>
	<stop  offset="1.641059e-02" style="stop-color:#F3F3F3"/>
	<stop  offset="9.090012e-02" style="stop-color:#C0C0C0"/>
	<stop  offset="0.1709" style="stop-color:#939393"/>
	<stop  offset="0.2545" style="stop-color:#6B6B6B"/>
	<stop  offset="0.3426" style="stop-color:#4A4A4A"/>
	<stop  offset="0.4366" style="stop-color:#2F2F2F"/>
	<stop  offset="0.5386" style="stop-color:#1A1A1A"/>
	<stop  offset="0.6523" style="stop-color:#0B0B0B"/>
	<stop  offset="0.7877" style="stop-color:#030303"/>
	<stop  offset="1" style="stop-color:#000000"/>
</linearGradient>
<path class="st0" d="M308.1,474c-6.3,0-12.6-3.1-17.4-9.4l-98.6-128c-7.1-9.2-9.2-22.9-5.3-34.9c3.8-12,12.8-19.8,22.8-19.8h49.3
	c40.8,0,73.9-43.1,73.9-96c0-52.9-33.2-96-73.9-96H86.3v352c0,17.7-11,32-24.6,32C48,474,37,459.7,37,442V58c0-17.7,11-32,24.6-32
	h197.1C326.7,26,382,97.8,382,186c0,83.9-50,153-113.4,159.5l56.9,73.9c9.6,12.5,9.6,32.8,0,45.3C320.7,470.9,314.4,474,308.1,474z"
	/>
<path d="M413.1,477c-7.1,0-14.2-2.7-19.5-8L283,360.5c-7.9-7.8-10.3-19.4-6-29.6c4.3-10.1,14.4-16.8,25.5-16.8h55.3
	c45.7,0,82.9-36.5,82.9-81.4c0-44.9-37.2-81.4-82.9-81.4H164.3v298.6c0,15-12.4,27.1-27.6,27.1c-15.3,0-27.6-12.1-27.6-27.1V124.1
	c0-15,12.4-27.1,27.6-27.1h221.1C434,97,496,157.9,496,232.7c0,71.2-56.1,129.8-127.2,135.3l63.8,62.7c10.8,10.6,10.8,27.8,0,38.4
	C427.2,474.3,420.1,477,413.1,477z"/>
</svg>
